<svg xmlns="http://www.w3.org/2000/svg" xmlns:xlink="http://www.w3.org/1999/xlink" width="500" zoomAndPan="magnify" viewBox="0 0 375 374.999991" height="500" preserveAspectRatio="xMidYMid meet" version="1.0"><defs><g/><clipPath id="1ef513182a"><path d="M 37.21875 56.824219 L 318.675781 56.824219 L 318.675781 338.28125 L 37.21875 338.28125 Z M 37.21875 56.824219 " clip-rule="nonzero"/></clipPath><clipPath id="8c140e088a"><path d="M 61.21875 56.824219 L 294.675781 56.824219 C 301.039062 56.824219 307.144531 59.355469 311.644531 63.855469 C 316.144531 68.355469 318.675781 74.460938 318.675781 80.824219 L 318.675781 314.28125 C 318.675781 320.644531 316.144531 326.75 311.644531 331.25 C 307.144531 335.75 301.039062 338.28125 294.675781 338.28125 L 61.21875 338.28125 C 54.855469 338.28125 48.75 335.75 44.25 331.25 C 39.75 326.75 37.21875 320.644531 37.21875 314.28125 L 37.21875 80.824219 C 37.21875 74.460938 39.75 68.355469 44.25 63.855469 C 48.75 59.355469 54.855469 56.824219 61.21875 56.824219 Z M 61.21875 56.824219 " clip-rule="nonzero"/></clipPath><clipPath id="ce285c2b63"><path d="M 56.324219 36.71875 L 337.78125 36.71875 L 337.78125 318.175781 L 56.324219 318.175781 Z M 56.324219 36.71875 " clip-rule="nonzero"/></clipPath><clipPath id="8bf42a90ac"><path d="M 80.324219 36.71875 L 313.78125 36.71875 C 320.144531 36.71875 326.25 39.25 330.75 43.75 C 335.25 48.25 337.78125 54.355469 337.78125 60.71875 L 337.78125 294.175781 C 337.78125 300.539062 335.25 306.644531 330.75 311.144531 C 326.25 315.644531 320.144531 318.175781 313.78125 318.175781 L 80.324219 318.175781 C 73.960938 318.175781 67.855469 315.644531 63.355469 311.144531 C 58.855469 306.644531 56.324219 300.539062 56.324219 294.175781 L 56.324219 60.71875 C 56.324219 54.355469 58.855469 48.25 63.355469 43.75 C 67.855469 39.25 73.960938 36.71875 80.324219 36.71875 Z M 80.324219 36.71875 " clip-rule="nonzero"/></clipPath></defs><g clip-path="url(#1ef513182a)"><g clip-path="url(#8c140e088a)"><path fill="#233dff" d="M 37.21875 56.824219 L 318.675781 56.824219 L 318.675781 338.28125 L 37.21875 338.28125 Z M 37.21875 56.824219 " fill-opacity="1" fill-rule="nonzero"/></g></g><g clip-path="url(#ce285c2b63)"><g clip-path="url(#8bf42a90ac)"><path fill="#000000" d="M 56.324219 36.71875 L 337.78125 36.71875 L 337.78125 318.175781 L 56.324219 318.175781 Z M 56.324219 36.71875 " fill-opacity="1" fill-rule="nonzero"/></g></g><g fill="#ffffff" fill-opacity="1"><g transform="translate(74.314483, 226.395591)"><g><path d="M 23.75 -97.84375 C 24.226562 -97.84375 24.898438 -97.601562 25.765625 -97.125 C 26.640625 -96.65625 27.078125 -95.507812 27.078125 -93.6875 L 27.078125 -4.03125 C 27.078125 -2.21875 26.640625 -1.070312 25.765625 -0.59375 C 24.898438 -0.113281 24.226562 0.125 23.75 0.125 L 12.828125 0.125 C 12.347656 0.125 11.671875 -0.113281 10.796875 -0.59375 C 9.929688 -1.070312 9.5 -2.21875 9.5 -4.03125 L 9.5 -93.6875 C 9.5 -95.507812 9.929688 -96.65625 10.796875 -97.125 C 11.671875 -97.601562 12.347656 -97.84375 12.828125 -97.84375 Z M 23.75 -97.84375 "/></g></g></g><g fill="#d400ff" fill-opacity="1"><g transform="translate(116.839499, 226.395591)"><g><path d="M 90.484375 -69.46875 L 90.484375 -68.75 C 90.484375 -68.832031 90.484375 -68.894531 90.484375 -68.9375 C 90.484375 -68.976562 90.484375 -69.035156 90.484375 -69.109375 C 90.484375 -69.191406 90.484375 -69.25 90.484375 -69.28125 C 90.484375 -69.320312 90.484375 -69.382812 90.484375 -69.46875 Z M 92.75 -5.109375 C 93.21875 -4.472656 93.375 -3.519531 93.21875 -2.25 C 92.976562 -0.664062 92.066406 0.125 90.484375 0.125 L 77.421875 0.125 C 76.390625 0.125 75.5625 -0.113281 74.9375 -0.59375 C 74.695312 -0.75 74.476562 -0.984375 74.28125 -1.296875 C 74.082031 -1.617188 73.863281 -1.9375 73.625 -2.25 L 52.125 -40.375 L 27.078125 -40.375 L 27.078125 -4.03125 C 27.078125 -2.21875 26.660156 -1.070312 25.828125 -0.59375 C 24.992188 -0.113281 24.300781 0.125 23.75 0.125 L 12.9375 0.125 C 12.382812 0.125 11.671875 -0.113281 10.796875 -0.59375 C 9.929688 -1.070312 9.5 -2.21875 9.5 -4.03125 L 9.5 -53.90625 C 9.5 -55.726562 9.929688 -56.859375 10.796875 -57.296875 C 11.671875 -57.734375 12.382812 -57.953125 12.9375 -57.953125 L 64.59375 -57.953125 C 67.601562 -57.953125 69.703125 -58.820312 70.890625 -60.5625 C 72.160156 -62.300781 72.796875 -65.148438 72.796875 -69.109375 C 72.796875 -73.066406 72.160156 -75.914062 70.890625 -77.65625 C 69.703125 -79.40625 67.601562 -80.28125 64.59375 -80.28125 L 12.9375 -80.28125 C 12.382812 -80.28125 11.671875 -80.492188 10.796875 -80.921875 C 9.929688 -81.359375 9.5 -82.488281 9.5 -84.3125 L 9.5 -93.6875 C 9.5 -95.59375 9.929688 -96.757812 10.796875 -97.1875 C 11.671875 -97.625 12.382812 -97.84375 12.9375 -97.84375 L 67.6875 -97.84375 C 75.84375 -97.84375 81.703125 -95.3125 85.265625 -90.25 C 88.671875 -85.34375 90.410156 -78.296875 90.484375 -69.109375 C 90.410156 -59.929688 88.671875 -52.882812 85.265625 -47.96875 C 82.253906 -43.851562 77.820312 -41.441406 71.96875 -40.734375 Z M 92.75 -5.109375 "/></g></g></g><g fill="#da22ff" fill-opacity="1"><g transform="translate(210.704345, 226.395591)"><g><path d="M 73.15625 -86.8125 L 106.515625 -4.515625 C 106.992188 -3.398438 107.113281 -2.445312 106.875 -1.65625 C 106.789062 -1.34375 106.570312 -0.96875 106.21875 -0.53125 C 105.863281 -0.09375 105.210938 0.125 104.265625 0.125 L 91.5625 0.125 C 89.894531 0.125 88.742188 -0.75 88.109375 -2.5 L 58.65625 -76 C 58.582031 -76.15625 58.546875 -76.234375 58.546875 -76.234375 L 58.0625 -76.234375 C 58.0625 -76.234375 58.039062 -76.210938 58 -76.171875 C 57.96875 -76.140625 57.910156 -76.039062 57.828125 -75.875 L 42.625 -37.40625 L 57.359375 -37.40625 C 59.015625 -37.40625 60.160156 -36.613281 60.796875 -35.03125 L 65.078125 -24.46875 C 65.472656 -23.113281 65.3125 -21.960938 64.59375 -21.015625 C 63.96875 -19.910156 62.941406 -19.359375 61.515625 -19.359375 L 35.5 -19.359375 L 28.734375 -2.375 C 28.097656 -0.707031 26.988281 0.125 25.40625 0.125 L 12.34375 0.125 C 11.394531 0.125 10.742188 -0.09375 10.390625 -0.53125 C 10.035156 -0.96875 9.816406 -1.34375 9.734375 -1.65625 C 9.492188 -2.375 9.570312 -3.328125 9.96875 -4.515625 L 43.109375 -86.8125 C 44.691406 -91 46.429688 -93.882812 48.328125 -95.46875 C 48.566406 -95.632812 48.84375 -95.832031 49.15625 -96.0625 C 49.476562 -96.300781 49.796875 -96.5 50.109375 -96.65625 C 52.484375 -98.320312 55.21875 -99.15625 58.3125 -99.15625 C 61.550781 -99.15625 64.476562 -98.164062 67.09375 -96.1875 C 69.707031 -94.207031 71.488281 -91.675781 72.4375 -88.59375 C 72.59375 -88.351562 72.726562 -88.070312 72.84375 -87.75 C 72.96875 -87.4375 73.070312 -87.125 73.15625 -86.8125 Z M 73.15625 -86.8125 "/></g></g></g></svg>